<?xml version="1.0" encoding="UTF-8" standalone="no"?>
<svg
   xmlns="http://www.w3.org/2000/svg"
   xmlns:svg="http://www.w3.org/2000/svg"
   xmlns:oryx="http://www.b3mn.org/oryx"
   xmlns:xlink="http://www.w3.org/1999/xlink"

   width="112"
   height="56"
   version="1.0">
  <defs></defs>
  <oryx:magnets>
  	<oryx:magnet oryx:cx="1" oryx:cy="14" oryx:anchors="left" />
  	<oryx:magnet oryx:cx="1" oryx:cy="28" oryx:anchors="left" />
  	<oryx:magnet oryx:cx="1" oryx:cy="42" oryx:anchors="left" />
  	
  	<oryx:magnet oryx:cx="28" oryx:cy="55" oryx:anchors="bottom" />
  	<oryx:magnet oryx:cx="56" oryx:cy="55" oryx:anchors="bottom" />
  	<oryx:magnet oryx:cx="84" oryx:cy="55" oryx:anchors="bottom" />
  	
  	<oryx:magnet oryx:cx="109" oryx:cy="14" oryx:anchors="right" />
  	<oryx:magnet oryx:cx="109" oryx:cy="28" oryx:anchors="right" />
  	<oryx:magnet oryx:cx="109" oryx:cy="42" oryx:anchors="right" />
  	
  	<oryx:magnet oryx:cx="28" oryx:cy="1" oryx:anchors="top" />
  	<oryx:magnet oryx:cx="56" oryx:cy="1" oryx:anchors="top" />
  	<oryx:magnet oryx:cx="84" oryx:cy="1" oryx:anchors="top" />
  	
  	<oryx:magnet oryx:cx="56" oryx:cy="28" oryx:default="yes" />
  </oryx:magnets>
  <g pointer-events="fill" oryx:minimumSize="50 40">
  	<defs>
		<radialGradient id="background" cx="10%" cy="10%" r="100%" fx="10%" fy="10%">
			<stop offset="0%" stop-color="#ffffff" stop-opacity="1"/>
			<stop id="fill_el" offset="100%" stop-color="#ffffcc" stop-opacity="1"/>
		</radialGradient>
		<radialGradient id="borderbackground" cx="10%" cy="10%" r="100%" fx="10%" fy="10%">
			<stop offset="0%" stop-color="#ffffff" stop-opacity="1"/>
			<stop id="fill_border" offset="100%" stop-color="#ffffff" stop-opacity="1"/>
		</radialGradient>
	</defs>
	
	<rect id="text_frame" oryx:anchors="bottom top right left" x="2" y="2" width="102" height="53" rx="10" ry="10" stroke="none" stroke-width="0" fill="none" />
	<rect id="bg_frame" oryx:resize="vertical horizontal" x="1" y="1" width="110" height="54" rx="10" ry="10" stroke="black" stroke-width="2" fill="url(#background) #ffffcc" />
		<text 
			font-size="12" 
			id="text_name" 
			x="56" 
			y="28" 
			oryx:align="middle center"
			oryx:fittoelem="text_frame"
			stroke="black">
		</text>
    	
	<g id="receiveTask" transform="translate(-2,-4)">
		<path id="frame26" oryx:anchors="left top" stroke="black" fill="none" stroke-width="1" d="M8,11 L8,21 L24,21 L24,11z M8,11 L16,17 L24,11" />
	</g>
  
	<!-- <g id="loop">
	      <path id="path2396"
	         oryx:anchors="bottom"
	         style="opacity:1;fill:none;fill-opacity:1;stroke:#000000;stroke-width:1.5;stroke-linecap:round;stroke-linejoin:round;stroke-miterlimit:2.0999999;stroke-dasharray:none;stroke-opacity:1"
	         d="M 47.608384,75.188343 L 47.608384,78.188343 L 44.608384,78.188343 M 47.608384,78.188343 A 4.875,4.875 0 1 1 51.639336,78.189378"
	         />
	</g> -->
	
	
	<g id="none"></g>

	<g id="sequential">
        	<path oryx:anchors="bottom" fill="none" stroke="black" stroke-width="2" d="M51,43 h10 M51,47 h10 M51,51 h10"/>
    	</g>
	<g id="parallel">
        	<path oryx:anchors="bottom" fill="none" stroke="black" stroke-width="2" d="M52,42 v10 M56,42 v10 M60,42 v10"/>
    	</g>

	

	<g id="compensation">
		<path oryx:anchors="bottom" fill="none" stroke="black" d="M 68 47 L 72 43 L 72 51 L 68 47 L 68 43 L 64 47 L 68 51 L 68 47" stroke-width="1" />
	</g>
  </g>
</svg>