<?xml version="1.0" encoding="UTF-8" standalone="no"?>
<svg
   xmlns="http://www.w3.org/2000/svg"
   xmlns:svg="http://www.w3.org/2000/svg"
   xmlns:oryx="http://www.b3mn.org/oryx"
   xmlns:xlink="http://www.w3.org/1999/xlink"

   width="112"
   height="56"
   version="1.0">
  <defs></defs>
  <oryx:magnets>
  	<oryx:magnet oryx:cx="1" oryx:cy="14" oryx:anchors="left" />
  	<oryx:magnet oryx:cx="1" oryx:cy="28" oryx:anchors="left" />
  	<oryx:magnet oryx:cx="1" oryx:cy="42" oryx:anchors="left" />
  	
  	<oryx:magnet oryx:cx="28" oryx:cy="55" oryx:anchors="bottom" />
  	<oryx:magnet oryx:cx="56" oryx:cy="55" oryx:anchors="bottom" />
  	<oryx:magnet oryx:cx="84" oryx:cy="55" oryx:anchors="bottom" />
  	
  	<oryx:magnet oryx:cx="109" oryx:cy="14" oryx:anchors="right" />
  	<oryx:magnet oryx:cx="109" oryx:cy="28" oryx:anchors="right" />
  	<oryx:magnet oryx:cx="109" oryx:cy="42" oryx:anchors="right" />
  	
  	<oryx:magnet oryx:cx="28" oryx:cy="1" oryx:anchors="top" />
  	<oryx:magnet oryx:cx="56" oryx:cy="1" oryx:anchors="top" />
  	<oryx:magnet oryx:cx="84" oryx:cy="1" oryx:anchors="top" />
  	
  	<oryx:magnet oryx:cx="56" oryx:cy="28" oryx:default="yes" />
  </oryx:magnets>
  <g pointer-events="fill" oryx:minimumSize="50 40">
  	<defs>
		<radialGradient id="background" cx="10%" cy="10%" r="100%" fx="10%" fy="10%">
			<stop offset="0%" stop-color="#ffffff" stop-opacity="1"/>
			<stop id="fill_el" offset="100%" stop-color="#ffffcc" stop-opacity="1"/>
		</radialGradient>
		<radialGradient id="borderbackground" cx="10%" cy="10%" r="100%" fx="10%" fy="10%">
			<stop offset="0%" stop-color="#ffffff" stop-opacity="1"/>
			<stop id="fill_border" offset="100%" stop-color="#ffffff" stop-opacity="1"/>
		</radialGradient>
	</defs>
	
	<rect id="text_frame" oryx:anchors="bottom top right left" x="2" y="2" width="102" height="53" rx="10" ry="10" stroke="none" stroke-width="0" fill="none" />
	<rect id="bg_frame" oryx:resize="vertical horizontal" x="1" y="1" width="110" height="54" rx="10" ry="10" stroke="black" stroke-width="2" fill="url(#background) #ffffcc" />
		<text 
			font-size="12" 
			id="text_name" 
			x="56" 
			y="28" 
			oryx:align="middle center"
			oryx:fittoelem="text_frame"
			stroke="black">
		</text>
	
	<g id="serviceTask" transform="scale(0.6,0.6) translate(6,6)">
		<polygon oryx:anchors="top left" id="frame20" style="opacity:1;fill:#ffffff" stroke="black" points="15.392,5.064 17.954,2.502 20.347,4.895 17.786,7.455 
			18.729,9.732 22.353,9.732 22.353,13.115 18.731,13.115 17.788,15.392 20.351,17.955 17.958,20.347 15.397,17.786 13.12,18.729 
			13.12,22.353 9.737,22.353 9.737,18.731 7.46,17.788 4.897,20.35 2.506,17.958 5.066,15.397 4.124,13.12 0.5,13.12 0.5,9.737 
			4.121,9.737 5.065,7.461 2.503,4.898 4.895,2.506 7.455,5.066 9.732,4.125 9.732,0.5 13.116,0.5 13.116,4.121 "/>
		<circle oryx:anchors="top left" id="frame21" style="opacity:1;fill:none" stroke="black" cx="11.427" cy="11.426" r="3.714"/>
		<polygon oryx:anchors="top left" id="frame22" style="opacity:1;fill:#ffffff" stroke="black" points="21.392,11.064 23.954,8.502 26.347,10.895 23.786,13.455 
			24.729,15.732 28.353,15.732 28.353,19.115 24.731,19.115 23.788,21.392 26.351,23.955 23.958,26.347 21.397,23.786 19.12,24.729 
			19.12,28.353 15.737,28.353 15.737,24.731 13.46,23.788 10.897,26.35 8.506,23.958 11.066,21.397 10.124,19.12 6.5,19.12 
			6.5,15.737 10.121,15.737 11.065,13.461 8.503,10.898 10.895,8.506 13.455,11.066 15.732,10.125 15.732,6.5 19.116,6.5 
			19.116,10.121 "/>
		<circle oryx:anchors="top left" id="frame23" style="opacity:1;fill:none;" stroke="black" cx="17.427" cy="17.426" r="3.714"/>
	</g>
  
	<!-- <g id="loop">
	      <path id="path2396"
	         oryx:anchors="bottom"
	         style="opacity:1;fill:none;fill-opacity:1;stroke:#000000;stroke-width:1.5;stroke-linecap:round;stroke-linejoin:round;stroke-miterlimit:2.0999999;stroke-dasharray:none;stroke-opacity:1"
	         d="M 47.608384,75.188343 L 47.608384,78.188343 L 44.608384,78.188343 M 47.608384,78.188343 A 4.875,4.875 0 1 1 51.639336,78.189378"
	         />
	</g> -->
	
	
	<g id="none"></g>

	<g id="sequential">
        	<path oryx:anchors="bottom" fill="none" stroke="black" stroke-width="2" d="M51,43 h10 M51,47 h10 M51,51 h10"/>
    	</g>
	<g id="parallel">
        	<path oryx:anchors="bottom" fill="none" stroke="black" stroke-width="2" d="M52,42 v10 M56,42 v10 M60,42 v10"/>
    	</g>

	

	<g id="compensation">
		<path oryx:anchors="bottom" fill="none" stroke="black" d="M 68 47 L 72 43 L 72 51 L 68 47 L 68 43 L 64 47 L 68 51 L 68 47" stroke-width="1" />
	</g>
  </g>
</svg>