<?xml version="1.0" encoding="UTF-8" standalone="no"?>
<svg
   xmlns="http://www.w3.org/2000/svg"
   xmlns:svg="http://www.w3.org/2000/svg"
   xmlns:oryx="http://www.b3mn.org/oryx"
   xmlns:xlink="http://www.w3.org/1999/xlink"

   width="112"
   height="56"
   version="1.0">
  <defs></defs>
  <oryx:magnets>
  	<oryx:magnet oryx:cx="1" oryx:cy="14" oryx:anchors="left" />
  	<oryx:magnet oryx:cx="1" oryx:cy="28" oryx:anchors="left" />
  	<oryx:magnet oryx:cx="1" oryx:cy="42" oryx:anchors="left" />
  	
  	<oryx:magnet oryx:cx="28" oryx:cy="55" oryx:anchors="bottom" />
  	<oryx:magnet oryx:cx="56" oryx:cy="55" oryx:anchors="bottom" />
  	<oryx:magnet oryx:cx="84" oryx:cy="55" oryx:anchors="bottom" />
  	
  	<oryx:magnet oryx:cx="109" oryx:cy="14" oryx:anchors="right" />
  	<oryx:magnet oryx:cx="109" oryx:cy="28" oryx:anchors="right" />
  	<oryx:magnet oryx:cx="109" oryx:cy="42" oryx:anchors="right" />
  	
  	<oryx:magnet oryx:cx="28" oryx:cy="1" oryx:anchors="top" />
  	<oryx:magnet oryx:cx="56" oryx:cy="1" oryx:anchors="top" />
  	<oryx:magnet oryx:cx="84" oryx:cy="1" oryx:anchors="top" />
  	
  	<oryx:magnet oryx:cx="56" oryx:cy="28" oryx:default="yes" />
  </oryx:magnets>
  <g pointer-events="fill" oryx:minimumSize="50 40">
  	<defs>
		<radialGradient id="background" cx="10%" cy="10%" r="100%" fx="10%" fy="10%">
			<stop offset="0%" stop-color="#ffffff" stop-opacity="1"/>
			<stop id="fill_el" offset="100%" stop-color="#ffffcc" stop-opacity="1"/>
		</radialGradient>
		<radialGradient id="borderbackground" cx="10%" cy="10%" r="100%" fx="10%" fy="10%">
			<stop offset="0%" stop-color="#ffffff" stop-opacity="1"/>
			<stop id="fill_border" offset="100%" stop-color="#ffffff" stop-opacity="1"/>
		</radialGradient>
	</defs>
	
	<rect id="text_frame" oryx:anchors="bottom top right left" x="2" y="2" width="102" height="53" rx="10" ry="10" stroke="none" stroke-width="0" fill="none" />
	<rect id="bg_frame" oryx:resize="vertical horizontal" x="1" y="1" width="110" height="54" rx="10" ry="10" stroke="black" stroke-width="2" fill="url(#background) #ffffcc" />
		<text 
			font-size="12" 
			id="text_name" 
			x="56" 
			y="28" 
			oryx:align="middle center"
			oryx:fittoelem="text_frame"
			stroke="black">
		</text>
	
	<g id="userTask" transform="scale(0.65,0.65) translate(6,6)">
		<path id="frame15" oryx:anchors="top left" style="opacity:1;fill:#F4F6F7" stroke="black"
		 d="M0.585,24.167h24.083v-7.833c0,0-2.333-3.917-7.083-5.167h-9.25
			c-4.417,1.333-7.833,5.75-7.833,5.75L0.585,24.167z"/>
		<path id="frame16" oryx:anchors="top left" style="opacity:1;fill:none" d="M 6 20 L 6 24" stroke="black"/>
		<path id="frame17" oryx:anchors="top left" style="opacity:1;fill:none" d="M 20 20 L 20 24" stroke="black"/>
		<circle id="frame18" oryx:anchors="top left" fill="black" cx="13.002" cy="5.916" r="5.417" stroke="black"/>
		<path id="frame19" oryx:anchors="top left" style="opacity:1;fill:#F0EFF0;" stroke="black"
		d="M8.043,7.083c0,0,2.814-2.426,5.376-1.807s4.624-0.693,4.624-0.693
			c0.25,1.688,0.042,3.75-1.458,5.584c0,0,1.083,0.75,1.083,1.5s0.125,1.875-1,3s-5.5,1.25-6.75,0S8.668,12.834,8.668,12
			s0.583-1.25,1.25-1.917C8.835,9.5,7.419,7.708,8.043,7.083z"/>
	</g>
  
	<!-- <g id="loop">
	      <path id="path2396"
	         oryx:anchors="bottom"
	         style="opacity:1;fill:none;fill-opacity:1;stroke:#000000;stroke-width:1.5;stroke-linecap:round;stroke-linejoin:round;stroke-miterlimit:2.0999999;stroke-dasharray:none;stroke-opacity:1"
	         d="M 47.608384,75.188343 L 47.608384,78.188343 L 44.608384,78.188343 M 47.608384,78.188343 A 4.875,4.875 0 1 1 51.639336,78.189378"
	         />
	</g> -->
	
	
	<g id="none"></g>

	<g id="sequential">
        	<path oryx:anchors="bottom" fill="none" stroke="black" stroke-width="2" d="M51,43 h10 M51,47 h10 M51,51 h10"/>
    	</g>
	<g id="parallel">
        	<path oryx:anchors="bottom" fill="none" stroke="black" stroke-width="2" d="M52,42 v10 M56,42 v10 M60,42 v10"/>
    	</g>

	

	<g id="compensation">
		<path oryx:anchors="bottom" fill="none" stroke="black" d="M 68 47 L 72 43 L 72 51 L 68 47 L 68 43 L 64 47 L 68 51 L 68 47" stroke-width="1" />
	</g>
  </g>
</svg>